<?xml version="1.0" encoding="UTF-8" standalone="no"?>
<!-- Created with Inkscape (http://www.inkscape.org/) -->

<svg
   width="500"
   height="500"
   viewBox="0 0 132.29166 132.29167"
   version="1.1"
   id="svg1"
   xmlns="http://www.w3.org/2000/svg"
   xmlns:svg="http://www.w3.org/2000/svg">
  <defs
     id="defs1" />
  <g
     id="layer1">
    <path
       id="path9"
       style="fill:#1a1a1a;stroke:none;stroke-width:0.264583;fill-opacity:1"
       d="M 66.000106 5.7655396 A 60.234482 60.234482 0 0 0 5.7655396 66.000106 A 60.234482 60.234482 0 0 0 66.000106 126.23467 A 60.234482 60.234482 0 0 0 126.23467 66.000106 A 60.234482 60.234482 0 0 0 66.000106 5.7655396 z M 66.303446 9.8619303 A 56.137932 56.137932 0 0 1 122.44162 66.000106 A 56.137932 56.137932 0 0 1 66.303446 122.13776 A 56.137932 56.137932 0 0 1 10.165271 66.000106 A 56.137932 56.137932 0 0 1 66.303446 9.8619303 z " />
    <path
       id="path10"
       style="fill:#1a1a1a;fill-opacity:1;stroke:none;stroke-width:0.264583"
       d="M 66.145833,15.875 13.168188,78.728011 c 0.977707,4.07534 2.422493,8.024224 4.305681,11.768274 L 49.509639,57.106592 66.145833,75.251221 82.782027,57.106592 114.63176,90.303015 c 1.87342,-3.771989 3.30304,-7.74853 4.26021,-11.849923 z M 48.947917,67.46875 42.333333,74.641439 V 100.65649 L 48.947917,96.687217 55.5625,92.718372 V 74.641439 Z m 34.395833,0 -6.614583,7.172689 v 18.077449 l 6.614583,3.968329 6.614583,3.968753 V 74.641439 Z" />
  </g>
</svg>
