<?xml version="1.0" encoding="UTF-8" standalone="no"?>
<!-- Created with Inkscape (http://www.inkscape.org/) -->

<svg
   width="500"
   height="500"
   viewBox="0 0 132.29166 132.29167"
   version="1.1"
   id="svg1"
   sodipodi:docname="marina_logo.svg"
   inkscape:version="1.3 (0e150ed, 2023-07-21)"
   xmlns:inkscape="http://www.inkscape.org/namespaces/inkscape"
   xmlns:sodipodi="http://sodipodi.sourceforge.net/DTD/sodipodi-0.dtd"
   xmlns:xlink="http://www.w3.org/1999/xlink"
   xmlns="http://www.w3.org/2000/svg"
   xmlns:svg="http://www.w3.org/2000/svg">
  <sodipodi:namedview
     id="namedview1"
     pagecolor="#ffffff"
     bordercolor="#000000"
     borderopacity="0.25"
     inkscape:showpageshadow="2"
     inkscape:pageopacity="0.0"
     inkscape:pagecheckerboard="0"
     inkscape:deskcolor="#d1d1d1"
     inkscape:zoom="1.236"
     inkscape:cx="250"
     inkscape:cy="250"
     inkscape:window-width="2560"
     inkscape:window-height="1387"
     inkscape:window-x="2560"
     inkscape:window-y="25"
     inkscape:window-maximized="1"
     inkscape:current-layer="svg1" />
  <defs
     id="defs1">
    <linearGradient
       id="linearGradient1"
       inkscape:collect="always">
      <stop
         style="stop-color:#1a1a1a;stop-opacity:1;"
         offset="0.71080142"
         id="stop1" />
      <stop
         style="stop-color:#0b1929;stop-opacity:0.72274882;"
         offset="1"
         id="stop2" />
    </linearGradient>
    <radialGradient
       inkscape:collect="always"
       xlink:href="#linearGradient1"
       id="radialGradient2"
       cx="66.145833"
       cy="66.145833"
       fx="66.145833"
       fy="66.145833"
       r="63.5"
       gradientUnits="userSpaceOnUse" />
    <filter
       inkscape:collect="always"
       style="color-interpolation-filters:sRGB"
       id="filter3"
       x="-0.091061591"
       y="-0.091061591"
       width="1.1821232"
       height="1.1821232">
      <feGaussianBlur
         inkscape:collect="always"
         stdDeviation="4.5708793"
         id="feGaussianBlur3" />
    </filter>
  </defs>
  <rect
     style="fill:url(#radialGradient2);stroke-width:0.264583"
     id="rect1"
     width="127"
     height="127"
     x="2.6458333"
     y="2.6458333"
     ry="8.3485031" />
  <g
     id="g3"
     style="fill:#000000;fill-opacity:1;stroke-width:0.52916666;stroke-dasharray:none;stroke:none;stroke-opacity:1;filter:url(#filter3)">
    <path
       id="path2"
       style="fill:#000000;stroke:none;stroke-width:0.52916666;fill-opacity:1;stroke-dasharray:none;stroke-opacity:1"
       d="M 66.000106 5.7655396 A 60.234482 60.234482 0 0 0 5.7655396 66.000106 A 60.234482 60.234482 0 0 0 66.000106 126.23467 A 60.234482 60.234482 0 0 0 126.23467 66.000106 A 60.234482 60.234482 0 0 0 66.000106 5.7655396 z M 66.303446 9.8619303 A 56.137932 56.137932 0 0 1 122.44162 66.000106 A 56.137932 56.137932 0 0 1 66.303446 122.13776 A 56.137932 56.137932 0 0 1 10.165271 66.000106 A 56.137932 56.137932 0 0 1 66.303446 9.8619303 z " />
    <path
       id="path3"
       style="fill:#000000;fill-opacity:1;stroke:none;stroke-width:0.52916666;stroke-dasharray:none;stroke-opacity:1"
       d="M 66.145833,15.875 13.168188,78.728011 c 0.977707,4.07534 2.422493,8.024224 4.305681,11.768274 L 49.509639,57.106592 66.145833,75.251221 82.782027,57.106592 114.63176,90.303015 c 1.87342,-3.771989 3.30304,-7.74853 4.26021,-11.849923 z M 48.947917,67.46875 42.333333,74.641439 V 100.65649 L 48.947917,96.687217 55.5625,92.718372 V 74.641439 Z m 34.395833,0 -6.614583,7.172689 v 18.077449 l 6.614583,3.968329 6.614583,3.968753 V 74.641439 Z" />
  </g>
  <g
     id="layer1"
     style="fill:#ffffff;fill-opacity:1;stroke-width:0.52916666;stroke-dasharray:none;stroke:#000000;stroke-opacity:1">
    <path
       id="path9"
       style="fill:#ffffff;stroke:#000000;stroke-width:0.52916666;fill-opacity:1;stroke-dasharray:none;stroke-opacity:1"
       d="M 66.000106 5.7655396 A 60.234482 60.234482 0 0 0 5.7655396 66.000106 A 60.234482 60.234482 0 0 0 66.000106 126.23467 A 60.234482 60.234482 0 0 0 126.23467 66.000106 A 60.234482 60.234482 0 0 0 66.000106 5.7655396 z M 66.303446 9.8619303 A 56.137932 56.137932 0 0 1 122.44162 66.000106 A 56.137932 56.137932 0 0 1 66.303446 122.13776 A 56.137932 56.137932 0 0 1 10.165271 66.000106 A 56.137932 56.137932 0 0 1 66.303446 9.8619303 z " />
    <path
       id="path10"
       style="fill:#ffffff;fill-opacity:1;stroke:#000000;stroke-width:0.52916666;stroke-dasharray:none;stroke-opacity:1"
       d="M 66.145833,15.875 13.168188,78.728011 c 0.977707,4.07534 2.422493,8.024224 4.305681,11.768274 L 49.509639,57.106592 66.145833,75.251221 82.782027,57.106592 114.63176,90.303015 c 1.87342,-3.771989 3.30304,-7.74853 4.26021,-11.849923 z M 48.947917,67.46875 42.333333,74.641439 V 100.65649 L 48.947917,96.687217 55.5625,92.718372 V 74.641439 Z m 34.395833,0 -6.614583,7.172689 v 18.077449 l 6.614583,3.968329 6.614583,3.968753 V 74.641439 Z" />
  </g>
</svg>
